<svg id="main" viewBox="0 0 1400 960" width="100%" style="display:block;max-width:1400px">
<defs>
  <pattern id="grid" width="30" height="30" patternUnits="userSpaceOnUse">
    <path d="M30 0L0 0 0 30" fill="none" stroke="#e8ecf4" stroke-width="0.8"/>
  </pattern>
  <pattern id="regohatch" width="8" height="8" patternUnits="userSpaceOnUse">
    <path d="M0 8L8 0" stroke="#c9c0ae" stroke-width="1"/>
  </pattern>
  <marker id="arr" markerWidth="8" markerHeight="6" refX="7" refY="3" orient="auto">
    <polygon points="0 0,8 3,0 6" fill="#0284c7"/>
  </marker>
  <marker id="arrdim" markerWidth="6" markerHeight="5" refX="5" refY="2.5" orient="auto">
    <polygon points="0 0,6 2.5,0 5" fill="#4a5568"/>
  </marker>
  <marker id="arrdimL" markerWidth="6" markerHeight="5" refX="1" refY="2.5" orient="auto-start-reverse">
    <polygon points="0 0,6 2.5,0 5" fill="#4a5568"/>
  </marker>
</defs>

<!-- BG -->
<rect width="1400" height="960" fill="#ffffff"/>
<rect width="1400" height="960" fill="url(#grid)" opacity="0.5"/>

<!-- STARS (dark mode only) -->
<g fill="#16192a" opacity="0">
  <circle cx="180" cy="30" r="1"/>
  <circle cx="420" cy="22" r="0.8"/>
  <circle cx="700" cy="32" r="1"/>
  <circle cx="1010" cy="24" r="0.8"/>
  <circle cx="1230" cy="37" r="1"/>
  <circle cx="60" cy="200" r="0.8"/>
  <circle cx="1350" cy="160" r="0.8"/>
  <circle cx="1180" cy="180" r="0.8"/>
  <circle cx="1340" cy="300" r="0.8"/>
</g>

<!-- TITLE + DISCLAIMER -->
<text x="690" y="24" fill="#0284c7" font-size="12" text-anchor="middle" letter-spacing="2.5">SIDE ELEVATION — CUT-AWAY — SELENE-S — OPEN TRACK (NOT TO SCALE)</text>
<text x="690" y="39" fill="#4a5568" font-size="9.5" text-anchor="middle">3-PHASE LSM · WINDING A C' B A' C B' · tau = 1.2 m · ALL COILS 20 K · FIELD CLASS 20-30 T</text>
<line x1="20" y1="45" x2="1380" y2="45" stroke="#c3ccdd" stroke-width="0.7"/>
<text x="690" y="57" fill="#6d28d9" font-size="10.5" text-anchor="middle" letter-spacing="1.5">VERY EARLY CONCEPT MOCK-UP — TEST DESIGN — NOT TO SCALE</text>

<!-- RADIATORS -->
<g fill="#f4f6fb" stroke="#0284c7" stroke-width="0.9">
  <rect x="160" y="64" width="70" height="6"/>
  <rect x="320" y="64" width="70" height="6"/>
  <rect x="480" y="64" width="70" height="6"/>
  <rect x="640" y="64" width="70" height="6"/>
  <rect x="800" y="64" width="70" height="6"/>
  <rect x="960" y="64" width="70" height="6"/>
</g>
<g stroke="#c3ccdd" stroke-width="2">
  <line x1="195" y1="70" x2="195" y2="78"/>
  <line x1="355" y1="70" x2="355" y2="78"/>
  <line x1="515" y1="70" x2="515" y2="78"/>
  <line x1="675" y1="70" x2="675" y2="78"/>
  <line x1="835" y1="70" x2="835" y2="78"/>
  <line x1="995" y1="70" x2="995" y2="78"/>
</g>

<!-- SUN SHIELD -->
<rect x="110" y="78" width="1020" height="8" fill="#eef1f8" stroke="#4a5568" stroke-width="0.8"/>
<g fill="#eef1f8" stroke="#64748b" stroke-width="0.5">
  <rect x="166" y="86" width="8" height="9"/>
  <rect x="616" y="86" width="8" height="9"/>
  <rect x="1066" y="86" width="8" height="9"/>
</g>

<!-- BORE BACKDROP -->
<rect x="120" y="145" width="1000" height="200" fill="#e9edf5"/>

<!-- FIELD ARCS -->
<g stroke="#0284c7" stroke-width="0.9" fill="none" opacity="0.25" stroke-dasharray="4,5">
  <path d="M140 168 Q165 245 140 340"/>
  <path d="M180 168 Q205 245 180 340"/>
  <path d="M220 168 Q245 245 220 340"/>
  <path d="M260 168 Q285 245 260 340"/>
  <path d="M300 168 Q325 245 300 340"/>
</g>

<!-- 25 COIL RING CASINGS -->
<g fill="#eef1f8" stroke="#64748b" stroke-width="0.8">
  <rect x="126" y="95" width="28" height="50"/><rect x="126" y="345" width="28" height="50"/>
  <rect x="166" y="95" width="28" height="50"/><rect x="166" y="345" width="28" height="50"/>
  <rect x="206" y="95" width="28" height="50"/><rect x="206" y="345" width="28" height="50"/>
  <rect x="246" y="95" width="28" height="50"/><rect x="246" y="345" width="28" height="50"/>
  <rect x="286" y="95" width="28" height="50"/><rect x="286" y="345" width="28" height="50"/>
  <rect x="326" y="95" width="28" height="50"/><rect x="326" y="345" width="28" height="50"/>
  <rect x="366" y="95" width="28" height="50"/><rect x="366" y="345" width="28" height="50"/>
  <rect x="406" y="95" width="28" height="50"/><rect x="406" y="345" width="28" height="50"/>
  <rect x="446" y="95" width="28" height="50"/><rect x="446" y="345" width="28" height="50"/>
  <rect x="486" y="95" width="28" height="50"/><rect x="486" y="345" width="28" height="50"/>
  <rect x="526" y="95" width="28" height="50"/><rect x="526" y="345" width="28" height="50"/>
  <rect x="566" y="95" width="28" height="50"/><rect x="566" y="345" width="28" height="50"/>
  <rect x="606" y="95" width="28" height="50"/><rect x="606" y="345" width="28" height="50"/>
  <rect x="646" y="95" width="28" height="50"/><rect x="646" y="345" width="28" height="50"/>
  <rect x="686" y="95" width="28" height="50"/><rect x="686" y="345" width="28" height="50"/>
  <rect x="726" y="95" width="28" height="50"/><rect x="726" y="345" width="28" height="50"/>
  <rect x="766" y="95" width="28" height="50"/><rect x="766" y="345" width="28" height="50"/>
  <rect x="806" y="95" width="28" height="50"/><rect x="806" y="345" width="28" height="50"/>
  <rect x="846" y="95" width="28" height="50"/><rect x="846" y="345" width="28" height="50"/>
  <rect x="886" y="95" width="28" height="50"/><rect x="886" y="345" width="28" height="50"/>
  <rect x="926" y="95" width="28" height="50"/><rect x="926" y="345" width="28" height="50"/>
  <rect x="966" y="95" width="28" height="50"/><rect x="966" y="345" width="28" height="50"/>
  <rect x="1006" y="95" width="28" height="50"/><rect x="1006" y="345" width="28" height="50"/>
  <rect x="1046" y="95" width="28" height="50"/><rect x="1046" y="345" width="28" height="50"/>
  <rect x="1086" y="95" width="28" height="50"/><rect x="1086" y="345" width="28" height="50"/>
</g>

<!-- WINDING PACKS — Phase A/A' -->
<g fill="#0284c7" opacity="0.9">
  <rect x="132" y="106" width="16" height="30"/><rect x="132" y="354" width="16" height="30"/>
  <rect x="252" y="106" width="16" height="30"/><rect x="252" y="354" width="16" height="30"/>
  <rect x="372" y="106" width="16" height="30"/><rect x="372" y="354" width="16" height="30"/>
  <rect x="492" y="106" width="16" height="30"/><rect x="492" y="354" width="16" height="30"/>
  <rect x="612" y="106" width="16" height="30"/><rect x="612" y="354" width="16" height="30"/>
  <rect x="732" y="106" width="16" height="30"/><rect x="732" y="354" width="16" height="30"/>
  <rect x="852" y="106" width="16" height="30"/><rect x="852" y="354" width="16" height="30"/>
  <rect x="972" y="106" width="16" height="30"/><rect x="972" y="354" width="16" height="30"/>
  <rect x="1092" y="106" width="16" height="30"/><rect x="1092" y="354" width="16" height="30"/>
</g>
<!-- Phase C/C' -->
<g fill="#8b5cf6" opacity="0.9">
  <rect x="172" y="106" width="16" height="30"/><rect x="172" y="354" width="16" height="30"/>
  <rect x="292" y="106" width="16" height="30"/><rect x="292" y="354" width="16" height="30"/>
  <rect x="412" y="106" width="16" height="30"/><rect x="412" y="354" width="16" height="30"/>
  <rect x="532" y="106" width="16" height="30"/><rect x="532" y="354" width="16" height="30"/>
  <rect x="652" y="106" width="16" height="30"/><rect x="652" y="354" width="16" height="30"/>
  <rect x="772" y="106" width="16" height="30"/><rect x="772" y="354" width="16" height="30"/>
  <rect x="892" y="106" width="16" height="30"/><rect x="892" y="354" width="16" height="30"/>
  <rect x="1012" y="106" width="16" height="30"/><rect x="1012" y="354" width="16" height="30"/>
</g>
<!-- Phase B/B' -->
<g fill="#6d28d9" opacity="0.9">
  <rect x="212" y="106" width="16" height="30"/><rect x="212" y="354" width="16" height="30"/>
  <rect x="332" y="106" width="16" height="30"/><rect x="332" y="354" width="16" height="30"/>
  <rect x="452" y="106" width="16" height="30"/><rect x="452" y="354" width="16" height="30"/>
  <rect x="572" y="106" width="16" height="30"/><rect x="572" y="354" width="16" height="30"/>
  <rect x="692" y="106" width="16" height="30"/><rect x="692" y="354" width="16" height="30"/>
  <rect x="812" y="106" width="16" height="30"/><rect x="812" y="354" width="16" height="30"/>
  <rect x="932" y="106" width="16" height="30"/><rect x="932" y="354" width="16" height="30"/>
  <rect x="1052" y="106" width="16" height="30"/><rect x="1052" y="354" width="16" height="30"/>
</g>

<!-- WINDING-SENSE SYMBOLS (first 6: A C' B A' C B') -->
<g stroke="#ffffff" stroke-width="1.2" fill="none">
  <circle cx="140" cy="121" r="5"/><line x1="137.2" y1="118.2" x2="142.8" y2="123.8"/><line x1="137.2" y1="123.8" x2="142.8" y2="118.2"/>
  <circle cx="140" cy="369" r="5"/><circle cx="140" cy="369" r="1.6" fill="#ffffff"/>
  <circle cx="180" cy="121" r="5"/><circle cx="180" cy="121" r="1.6" fill="#ffffff"/>
  <circle cx="180" cy="369" r="5"/><line x1="177.2" y1="366.2" x2="182.8" y2="371.8"/><line x1="177.2" y1="371.8" x2="182.8" y2="366.2"/>
  <circle cx="220" cy="121" r="5"/><line x1="217.2" y1="118.2" x2="222.8" y2="123.8"/><line x1="217.2" y1="123.8" x2="222.8" y2="118.2"/>
  <circle cx="220" cy="369" r="5"/><circle cx="220" cy="369" r="1.6" fill="#ffffff"/>
  <circle cx="260" cy="121" r="5"/><circle cx="260" cy="121" r="1.6" fill="#ffffff"/>
  <circle cx="260" cy="369" r="5"/><line x1="257.2" y1="366.2" x2="262.8" y2="371.8"/><line x1="257.2" y1="371.8" x2="262.8" y2="366.2"/>
  <circle cx="300" cy="121" r="5"/><line x1="297.2" y1="118.2" x2="302.8" y2="123.8"/><line x1="297.2" y1="123.8" x2="302.8" y2="118.2"/>
  <circle cx="300" cy="369" r="5"/><circle cx="300" cy="369" r="1.6" fill="#ffffff"/>
  <circle cx="340" cy="121" r="5"/><circle cx="340" cy="121" r="1.6" fill="#ffffff"/>
  <circle cx="340" cy="369" r="5"/><line x1="337.2" y1="366.2" x2="342.8" y2="371.8"/><line x1="337.2" y1="371.8" x2="342.8" y2="366.2"/>
</g>
<!-- PHASE LABELS -->
<g font-size="9" text-anchor="middle">
  <text x="140" y="159" fill="#0284c7">A</text>
  <text x="180" y="159" fill="#8b5cf6">C'</text>
  <text x="220" y="159" fill="#6d28d9">B</text>
  <text x="260" y="159" fill="#0284c7">A'</text>
  <text x="300" y="159" fill="#8b5cf6">C</text>
  <text x="340" y="159" fill="#6d28d9">B'</text>
</g>

<!-- TRUSS + MANIFOLD + TAPS + PYLONS -->
<rect x="120" y="395" width="1000" height="14" fill="#f4f6fb" stroke="#c3ccdd" stroke-width="0.8"/>
<line x1="130" y1="402" x2="1115" y2="402" stroke="#0284c7" stroke-width="1.2" stroke-dasharray="5,4" opacity="0.8"/>
<g stroke="#0284c7" stroke-width="0.8" stroke-dasharray="2,2" opacity="0.7">
  <line x1="140" y1="395" x2="140" y2="402"/><line x1="180" y1="395" x2="180" y2="402"/>
  <line x1="220" y1="395" x2="220" y2="402"/><line x1="260" y1="395" x2="260" y2="402"/>
  <line x1="300" y1="395" x2="300" y2="402"/><line x1="340" y1="395" x2="340" y2="402"/>
  <line x1="380" y1="395" x2="380" y2="402"/><line x1="420" y1="395" x2="420" y2="402"/>
  <line x1="460" y1="395" x2="460" y2="402"/><line x1="500" y1="395" x2="500" y2="402"/>
  <line x1="540" y1="395" x2="540" y2="402"/><line x1="580" y1="395" x2="580" y2="402"/>
  <line x1="620" y1="395" x2="620" y2="402"/><line x1="660" y1="395" x2="660" y2="402"/>
  <line x1="700" y1="395" x2="700" y2="402"/><line x1="740" y1="395" x2="740" y2="402"/>
  <line x1="780" y1="395" x2="780" y2="402"/><line x1="820" y1="395" x2="820" y2="402"/>
  <line x1="860" y1="395" x2="860" y2="402"/><line x1="900" y1="395" x2="900" y2="402"/>
  <line x1="940" y1="395" x2="940" y2="402"/><line x1="980" y1="395" x2="980" y2="402"/>
  <line x1="1020" y1="395" x2="1020" y2="402"/><line x1="1060" y1="395" x2="1060" y2="402"/>
  <line x1="1100" y1="395" x2="1100" y2="402"/>
</g>
<g fill="#f4f6fb" stroke="#64748b" stroke-width="0.7">
  <rect x="160" y="409" width="14" height="31"/>
  <rect x="310" y="409" width="14" height="31"/>
  <rect x="460" y="409" width="14" height="31"/>
  <rect x="610" y="409" width="14" height="31"/>
  <rect x="760" y="409" width="14" height="31"/>
  <rect x="910" y="409" width="14" height="31"/>
  <rect x="1060" y="409" width="14" height="31"/>
</g>

<!-- GROUND + REGOLITH -->
<line x1="20" y1="440" x2="1380" y2="440" stroke="#4a5568" stroke-width="1.2"/>
<rect x="20" y="440" width="1360" height="120" fill="#f0ebe2"/>
<rect x="20" y="440" width="1360" height="120" fill="url(#regohatch)" opacity="0.8"/>

<!-- GENERAL NOTES -->
<rect x="35" y="464" width="385" height="94" fill="#ffffff" opacity="0.94" stroke="#c3ccdd" stroke-width="0.8"/>
<text x="45" y="479" fill="#0284c7" font-size="9.5" letter-spacing="2">GENERAL NOTES</text>
<g font-size="8" fill="#4a5568">
  <text x="45" y="492">1. EARLY CONCEPT ILLUSTRATION — NOT TO SCALE.</text>
  <text x="45" y="504">2. ALL COILS AT 20 K · FIELD CLASS 20-30 T.</text>
  <text x="45" y="516">3. EACH COIL: OWN LOOP, CRYO BRANCH + QUENCH DUMP.</text>
  <text x="45" y="528">4. WINDING A C' B A' C B' — tau = 1.2 m, WAVE 2.4 m.</text>
  <text x="45" y="540">5. BORE OPEN TO VACUUM. NO TUBE. NO DOORS.</text>
  <text x="45" y="552">6. POD: KICK STAGE + EXPANDED CARGO BAY + FAIRING.</text>
</g>

<!-- BURIED CRYOPLANT -->
<rect x="430" y="465" width="270" height="75" rx="10" fill="#f4f6fb" stroke="#0369a1" stroke-width="1.2"/>
<text x="565" y="490" fill="#0284c7" font-size="9.5" text-anchor="middle" letter-spacing="1.2">BURIED CRYOPLANT &amp; THERMAL STORE</text>
<text x="565" y="507" fill="#4a5568" font-size="8.5" text-anchor="middle">20 K closed He loop · heat banked over 14-day lunar day</text>
<text x="565" y="523" fill="#4a5568" font-size="8.5" text-anchor="middle">regolith ~250 K constant below 2 m — natural cold buffer</text>
<line x1="500" y1="465" x2="500" y2="402" stroke="#0284c7" stroke-width="1.2" stroke-dasharray="4,4" opacity="0.8"/>
<line x1="640" y1="465" x2="640" y2="402" stroke="#0284c7" stroke-width="1.2" stroke-dasharray="4,4" opacity="0.8"/>

<!-- ═══ POD: kick stage + EXPANDED cargo bay + dust fairing ═══ -->
<polygon points="354,225 380,237 380,253 354,265" fill="#f4f6fb" stroke="#0369a1" stroke-width="1.2"/>
<rect x="380" y="165" width="450" height="160" rx="4" fill="#eef2f9" stroke="#0369a1" stroke-width="1.6"/>
<rect x="390" y="216" width="57" height="58" rx="16" fill="#e2e8f2" stroke="#c3ccdd" stroke-width="1"/>
<text x="418" y="249" fill="#4a5568" font-size="7.5" text-anchor="middle">PROP</text>
<line x1="390" y1="245" x2="380" y2="245" stroke="#c3ccdd" stroke-width="1.5"/>
<text x="418" y="192" fill="#4a5568" font-size="7.5" text-anchor="middle">KICK+AVIONICS</text>
<line x1="455" y1="165" x2="455" y2="325" stroke="#0369a1" stroke-width="0.7" opacity="0.5"/>
<!-- payload rails -->
<line x1="462" y1="196" x2="820" y2="196" stroke="#c3ccdd" stroke-width="1"/>
<line x1="462" y1="294" x2="820" y2="294" stroke="#c3ccdd" stroke-width="1"/>
<!-- 4 cargo modules (expanded bay) -->
<g fill="#e2e8f2" stroke="#c3ccdd" stroke-width="1">
  <rect x="468" y="201" width="80" height="88" rx="3"/>
  <rect x="556" y="201" width="80" height="88" rx="3"/>
  <rect x="644" y="201" width="80" height="88" rx="3"/>
  <rect x="732" y="201" width="80" height="88" rx="3"/>
</g>
<g fill="#4a5568" font-size="8" text-anchor="middle">
  <text x="508" y="249">MOD 1</text>
  <text x="596" y="249">MOD 2</text>
  <text x="684" y="249">MOD 3</text>
  <text x="772" y="249">MOD 4</text>
</g>
<!-- dust fairing -->
<path d="M830,165 L848,165 Q888,165 888,213 L888,277 Q888,325 848,325 L830,325 Z" fill="#eef2f9" stroke="#0369a1" stroke-width="1.6"/>
<line x1="830" y1="165" x2="830" y2="325" stroke="#0369a1" stroke-width="0.8" opacity="0.6"/>
<text x="861" y="247" fill="#4a5568" font-size="7.5" text-anchor="middle" transform="rotate(-90,861,247)">FAIRING</text>
<!-- field pole rings N·S·N @ tau=1.2 m (centers 500, 620, 740) -->
<g fill="#0369a1" opacity="0.55" stroke="#0284c7" stroke-width="1">
  <rect x="482" y="161" width="36" height="22"/><rect x="482" y="307" width="36" height="22"/>
  <rect x="602" y="161" width="36" height="22"/><rect x="602" y="307" width="36" height="22"/>
  <rect x="722" y="161" width="36" height="22"/><rect x="722" y="307" width="36" height="22"/>
</g>
<g font-size="10" fill="#ffffff" text-anchor="middle">
  <text x="500" y="177">N</text><text x="620" y="177">S</text><text x="740" y="177">N</text>
  <text x="500" y="323">N</text><text x="620" y="323">S</text><text x="740" y="323">N</text>
</g>
<text x="620" y="158" fill="#0284c7" font-size="10" text-anchor="middle" letter-spacing="1.2">PAYLOAD POD Ø1.6 m — EXPANDED CARGO BAY — POLES N·S·N @ tau = 1.2 m</text>
<text x="620" y="338" fill="#4a5568" font-size="9" text-anchor="middle">kick stage (Isp 350 s) · 4 modules on rails — 3.6 m cargo bay · blunt dust fairing</text>
<!-- velocity arrow -->
<line x1="896" y1="245" x2="948" y2="245" stroke="#0284c7" stroke-width="2" marker-end="url(#arr)"/>
<text x="954" y="241" fill="#0284c7" font-size="10">v</text>

<!-- DIMENSIONS (indicative) -->
<line x1="98" y1="145" x2="98" y2="345" stroke="#4a5568" stroke-width="0.8" marker-start="url(#arrdimL)" marker-end="url(#arrdim)"/>
<line x1="93" y1="145" x2="113" y2="145" stroke="#4a5568" stroke-width="0.8"/>
<line x1="93" y1="345" x2="113" y2="345" stroke="#4a5568" stroke-width="0.8"/>
<text x="84" y="245" fill="#4a5568" font-size="9" text-anchor="middle" transform="rotate(-90,84,245)">Ø 2.0 m BORE — OPEN</text>
<line x1="60" y1="95" x2="60" y2="395" stroke="#4a5568" stroke-width="0.8" marker-start="url(#arrdimL)" marker-end="url(#arrdim)"/>
<line x1="55" y1="95" x2="75" y2="95" stroke="#4a5568" stroke-width="0.8"/>
<line x1="55" y1="395" x2="75" y2="395" stroke="#4a5568" stroke-width="0.8"/>
<text x="46" y="245" fill="#4a5568" font-size="9" text-anchor="middle" transform="rotate(-90,46,245)">Ø 3.0 m RING OD</text>
<line x1="120" y1="578" x2="1120" y2="578" stroke="#4a5568" stroke-width="0.8" marker-start="url(#arrdimL)" marker-end="url(#arrdim)"/>
<line x1="120" y1="568" x2="120" y2="586" stroke="#4a5568" stroke-width="0.8"/>
<line x1="1120" y1="568" x2="1120" y2="586" stroke="#4a5568" stroke-width="0.8"/>
<text x="620" y="573" fill="#4a5568" font-size="10.5" text-anchor="middle">NOMINAL 10 m SECTION (drawn not to scale) — 25 COILS @ 0.4 m — sections share the cryoplant</text>

<!-- RIGHT-SIDE CALLOUTS -->
<g font-size="9.5" fill="#4a5568">
  <line x1="1032" y1="67" x2="1140" y2="67" stroke="#0284c7" stroke-width="0.5"/>
  <text x="1144" y="70" fill="#0284c7">Radiators — heat to deep space</text>
  <line x1="1130" y1="82" x2="1140" y2="82" stroke="#4a5568" stroke-width="0.5"/>
  <text x="1144" y="85">Sun shield (lunar day, 390 K)</text>
  <line x1="1114" y1="112" x2="1140" y2="112" stroke="#64748b" stroke-width="0.5"/>
  <text x="1144" y="115">Coil ring — sealed cryostat</text>
  <line x1="1108" y1="130" x2="1140" y2="130" stroke="#8b5cf6" stroke-width="0.5"/>
  <text x="1144" y="133" fill="#8b5cf6">REBCO winding — 20 K · 20-30 T</text>
  <line x1="1122" y1="245" x2="1140" y2="245" stroke="#4a5568" stroke-width="0.5"/>
  <text x="1144" y="242">Bore open to lunar vacuum</text>
  <text x="1144" y="254">— no tube, no doors</text>
  <line x1="1116" y1="402" x2="1140" y2="402" stroke="#0284c7" stroke-width="0.5"/>
  <text x="1144" y="405" fill="#0284c7">20 K manifold — branch per coil</text>
  <text x="1144" y="455">LUNAR REGOLITH</text>
  <line x1="702" y1="502" x2="1140" y2="502" stroke="#0369a1" stroke-width="0.4" stroke-dasharray="3,4" opacity="0.6"/>
  <text x="1144" y="505" fill="#0369a1">Plant feeds every section</text>
</g>

<!-- ══════════ BOTTOM PANELS ══════════ -->
<line x1="20" y1="595" x2="1380" y2="595" stroke="#c3ccdd" stroke-width="0.8"/>
<text x="215" y="615" fill="#0284c7" font-size="10.5" text-anchor="middle" letter-spacing="2">COIL RING — FACE VIEW</text>
<text x="605" y="615" fill="#0284c7" font-size="10.5" text-anchor="middle" letter-spacing="2">CONDUCTOR &amp; WINDING</text>
<text x="905" y="615" fill="#0284c7" font-size="10.5" text-anchor="middle" letter-spacing="2">PAYLOAD CONFIGS</text>
<text x="1220" y="615" fill="#0284c7" font-size="10.5" text-anchor="middle" letter-spacing="2">VARIANTS — S THEN L</text>

<!-- ══ PANEL 1: RING FACE VIEW ══ -->
<g transform="translate(215,775)">
  <rect x="-16" y="-126" width="32" height="16" fill="#f4f6fb" stroke="#0284c7" stroke-width="0.8"/>
  <line x1="-8" y1="-110" x2="-8" y2="-99" stroke="#0284c7" stroke-width="1"/>
  <line x1="8" y1="-110" x2="8" y2="-99" stroke="#0284c7" stroke-width="1"/>
  <text y="-132" fill="#4a5568" font-size="7.5" text-anchor="middle">PHASE FEED + QUENCH DETECTION</text>
  <circle r="100" fill="#eef1f8" stroke="#64748b" stroke-width="1.5"/>
  <circle r="87" fill="#f4f6fb" stroke="#1e3a8a" stroke-width="1"/>
  <circle r="75" fill="#eef1f8" stroke="#64748b" stroke-width="1"/>
  <circle r="72.5" fill="none" stroke="#a16207" stroke-width="2"/>
  <circle r="60" fill="none" stroke="#6d28d9" stroke-width="20" opacity="0.9"/>
  <circle r="60" fill="none" stroke="#ffffff" stroke-width="20" stroke-dasharray="2.5,13.2"/>
  <circle r="49" fill="none" stroke="#a16207" stroke-width="1.5"/>
  <circle r="48" fill="#eef1f8" stroke="#64748b" stroke-width="1"/>
  <circle r="42" fill="#e9edf5" stroke="#0284c7" stroke-width="0.8" stroke-dasharray="3,4" opacity="0.8"/>
  <g fill="#f4f6fb" stroke="#0284c7" stroke-width="1">
    <circle cx="57.3" cy="-57.3" r="4.5"/>
    <circle cx="57.3" cy="57.3" r="4.5"/>
    <circle cx="-57.3" cy="57.3" r="4.5"/>
    <circle cx="-57.3" cy="-57.3" r="4.5"/>
  </g>
  <text y="3" fill="#4a5568" font-size="9" text-anchor="middle">BORE Ø2.0 m</text>
  <g font-size="8.5" fill="#4a5568">
    <line x1="72" y1="-70" x2="106" y2="-70" stroke="#64748b" stroke-width="0.5"/>
    <text x="110" y="-67">Vacuum vessel</text>
    <line x1="71" y1="-50" x2="106" y2="-50" stroke="#1e3a8a" stroke-width="0.5"/>
    <text x="110" y="-47" fill="#1e3a8a">Thermal shield + MLI</text>
    <line x1="68" y1="-32" x2="106" y2="-32" stroke="#64748b" stroke-width="0.5"/>
    <text x="110" y="-29">Coil case — 316LN</text>
    <line x1="71" y1="-14" x2="106" y2="-14" stroke="#a16207" stroke-width="0.5"/>
    <text x="110" y="-11" fill="#a16207">G10 insulation</text>
    <line x1="70" y1="4" x2="106" y2="4" stroke="#6d28d9" stroke-width="0.5"/>
    <text x="110" y="7" fill="#6d28d9">REBCO winding</text>
    <line x1="60" y1="55" x2="106" y2="55" stroke="#0284c7" stroke-width="0.5"/>
    <text x="110" y="58" fill="#0284c7">ScHe channels — 20 K</text>
  </g>
</g>
<text x="215" y="895" fill="#4a5568" font-size="8.5" text-anchor="middle">construction mirrors SPARC-class fusion TF coils</text>

<!-- ══ PANEL 2: CONDUCTOR & WINDING ══ -->
<text x="605" y="640" fill="#4a5568" font-size="8.5" text-anchor="middle" letter-spacing="1.2">SINGLE REBCO TAPE — FILM CROSS-SECTION</text>
<g stroke="#c3ccdd" stroke-width="0.6">
  <rect x="460" y="648" width="130" height="14" fill="#b07c4a"/>
  <rect x="460" y="662" width="130" height="6"  fill="#94a3b8"/>
  <rect x="460" y="668" width="130" height="10" fill="#0284c7"/>
  <rect x="460" y="678" width="130" height="4"  fill="#4a5568"/>
  <rect x="460" y="682" width="130" height="22" fill="#64748b"/>
  <rect x="460" y="704" width="130" height="14" fill="#b07c4a"/>
</g>
<g font-size="8" fill="#4a5568">
  <text x="596" y="659">Cu stabilizer — 20 µm</text>
  <text x="596" y="668">Ag cap — 2 µm</text>
  <text x="596" y="677" fill="#0284c7">REBCO film — 1.6 µm</text>
  <text x="596" y="685">buffer oxides — 0.2 µm</text>
  <text x="596" y="697">Hastelloy C-276 — 50 µm</text>
  <text x="596" y="714">Cu stabilizer — 20 µm</text>
</g>
<text x="605" y="731" fill="#0284c7" font-size="8" text-anchor="middle">the film is microns — the MAGNET is not:</text>
<text x="605" y="743" fill="#0284c7" font-size="8" text-anchor="middle">~320 turns of tape stack into a winding pack ~ 8 × 10 cm</text>

<text x="605" y="760" fill="#4a5568" font-size="8.5" text-anchor="middle" letter-spacing="1.2">WINDING PACK — 8 DOUBLE-PANCAKES × 40 TURNS</text>
<g>
  <rect x="480" y="766" width="250" height="74" fill="#e2e8f2" stroke="#c3ccdd" stroke-width="0.6"/>
  <g fill="#6d28d9" opacity="0.9">
    <rect x="481" y="767" width="248" height="4"/>
    <rect x="481" y="776" width="248" height="4"/>
    <rect x="481" y="785" width="248" height="4"/>
    <rect x="481" y="794" width="248" height="4"/>
    <rect x="481" y="803" width="248" height="4"/>
    <rect x="481" y="812" width="248" height="4"/>
    <rect x="481" y="821" width="248" height="4"/>
    <rect x="481" y="830" width="248" height="4"/>
  </g>
  <g fill="#0284c7" opacity="0.8">
    <rect x="481" y="771.5" width="248" height="4"/>
    <rect x="481" y="780.5" width="248" height="4"/>
    <rect x="481" y="789.5" width="248" height="4"/>
    <rect x="481" y="798.5" width="248" height="4"/>
    <rect x="481" y="807.5" width="248" height="4"/>
    <rect x="481" y="816.5" width="248" height="4"/>
    <rect x="481" y="825.5" width="248" height="4"/>
    <rect x="481" y="834.5" width="248" height="4"/>
  </g>
</g>
<line x1="734" y1="788" x2="750" y2="788" stroke="#a16207" stroke-width="0.5"/>
<text x="753" y="791" fill="#a16207" font-size="7.5">G10 layers</text>
<text x="605" y="856" fill="#4a5568" font-size="8" text-anchor="middle">VPI epoxy · 316LN former</text>
<text x="605" y="868" fill="#4a5568" font-size="8" text-anchor="middle">one loop · one cryo branch · one dump</text>

<!-- ══ PANEL 3: PAYLOAD CONFIGS ══ -->
<text x="905" y="650" fill="#4a5568" font-size="8.5" text-anchor="middle" letter-spacing="1.2">CONFIG A — UP TO 4 STD MODULES</text>
<rect x="785" y="658" width="200" height="50" rx="8" fill="#eef2f9" stroke="#0369a1" stroke-width="1.2"/>
<line x1="950" y1="658" x2="950" y2="708" stroke="#0369a1" stroke-width="0.6" opacity="0.6"/>
<g fill="#e2e8f2" stroke="#c3ccdd" stroke-width="0.8">
  <rect x="791" y="665" width="36" height="36" rx="2"/>
  <rect x="831" y="665" width="36" height="36" rx="2"/>
  <rect x="871" y="665" width="36" height="36" rx="2"/>
  <rect x="911" y="665" width="36" height="36" rx="2"/>
</g>
<text x="905" y="736" fill="#4a5568" font-size="8.5" text-anchor="middle" letter-spacing="1.2">CONFIG B — SINGLE BULK PAYLOAD</text>
<rect x="785" y="744" width="200" height="50" rx="8" fill="#eef2f9" stroke="#0369a1" stroke-width="1.2"/>
<line x1="950" y1="744" x2="950" y2="794" stroke="#0369a1" stroke-width="0.6" opacity="0.6"/>
<rect x="793" y="751" width="148" height="36" rx="14" fill="#f4f6fb" stroke="#0284c7" stroke-width="0.9"/>
<text x="867" y="773" fill="#0284c7" font-size="7.5" text-anchor="middle">BULK PAYLOAD</text>
<text x="905" y="820" fill="#4a5568" font-size="8.5" text-anchor="middle">right cap = dust fairing — blunt, no aero</text>
<text x="905" y="834" fill="#4a5568" font-size="8.5" text-anchor="middle">3.6 m cargo bay, <=1,000 kg (S)</text>
<text x="905" y="848" fill="#4a5568" font-size="8.5" text-anchor="middle">modules lock to rails — mix freely</text>

<!-- ══ PANEL 4: VARIANTS TABLE ══ -->
<g>
  <line x1="1050" y1="630" x2="1390" y2="630" stroke="#c3ccdd" stroke-width="0.5"/>
  <line x1="1050" y1="856" x2="1390" y2="856" stroke="#c3ccdd" stroke-width="0.5"/>
  <line x1="1185" y1="630" x2="1185" y2="856" stroke="#c3ccdd" stroke-width="0.5"/>
  <line x1="1288" y1="630" x2="1288" y2="856" stroke="#c3ccdd" stroke-width="0.5"/>
  <text x="1192" y="649" font-size="9.5" fill="#0284c7" letter-spacing="0.5">SELENE-S</text>
  <text x="1294" y="649" font-size="9.5" fill="#8b5cf6" letter-spacing="0.5">SELENE-L</text>
  <line x1="1050" y1="657" x2="1390" y2="657" stroke="#c3ccdd" stroke-width="0.4"/>
  <g font-size="9.5" fill="#4a5568">
    <text x="1056" y="677">Bore</text>
    <text x="1056" y="701">Cargo bay</text>
    <text x="1056" y="725">Mass</text>
    <text x="1056" y="749">Field</text>
    <text x="1056" y="773">Temp</text>
    <text x="1056" y="797">Coils/10 m</text>
    <text x="1056" y="821">Exit v</text>
    <text x="1056" y="845">Order</text>
  </g>
  <g font-size="9.5" fill="#16192a">
    <text x="1192" y="677">2.0 m</text>
    <text x="1192" y="701">Ø1.6×3.6 m</text>
    <text x="1192" y="725"><=1,000 kg</text>
    <text x="1192" y="749" fill="#0284c7">20-30 T</text>
    <text x="1192" y="773" fill="#0284c7">20 K</text>
    <text x="1192" y="797">25 @ 0.4 m</text>
    <text x="1192" y="821">2.38 km/s</text>
    <text x="1192" y="845" fill="#0284c7">FIRST</text>
  </g>
  <g font-size="9.5" fill="#16192a">
    <text x="1294" y="677">5.0 m</text>
    <text x="1294" y="701">Ø4.2×10 m</text>
    <text x="1294" y="725"><=25,000 kg</text>
    <text x="1294" y="749" fill="#0284c7">20-30 T</text>
    <text x="1294" y="773" fill="#0284c7">20 K</text>
    <text x="1294" y="797">25 @ 0.4 m</text>
    <text x="1294" y="821">2.38 km/s</text>
    <text x="1294" y="845" fill="#8b5cf6">after S</text>
  </g>
</g>

<!-- ══════════ TITLE BLOCK ══════════ -->
<g>
  <rect x="20" y="905" width="1360" height="48" fill="#f4f6fb" stroke="#c3ccdd" stroke-width="1"/>
  <line x1="330" y1="905" x2="330" y2="953" stroke="#c3ccdd" stroke-width="0.7"/>
  <line x1="760" y1="905" x2="760" y2="953" stroke="#c3ccdd" stroke-width="0.7"/>
  <line x1="905" y1="905" x2="905" y2="953" stroke="#c3ccdd" stroke-width="0.7"/>
  <line x1="955" y1="905" x2="955" y2="953" stroke="#c3ccdd" stroke-width="0.7"/>
  <line x1="1030" y1="905" x2="1030" y2="953" stroke="#c3ccdd" stroke-width="0.7"/>
  <line x1="1085" y1="905" x2="1085" y2="953" stroke="#c3ccdd" stroke-width="0.7"/>
  <line x1="1185" y1="905" x2="1185" y2="953" stroke="#c3ccdd" stroke-width="0.7"/>
  <g font-size="6.5" fill="#8a94a8" letter-spacing="1">
    <text x="28" y="918">COMPANY / PROJECT</text>
    <text x="338" y="918">TITLE</text>
    <text x="768" y="918">DWG NO</text>
    <text x="913" y="918">REV</text>
    <text x="963" y="918">SCALE</text>
    <text x="1038" y="918">UNITS</text>
    <text x="1093" y="918">DATE</text>
    <text x="1193" y="918">STATUS</text>
  </g>
  <g font-size="10" fill="#16192a">
    <text x="28" y="941">PERPETUAL TECHNOLOGIES — KERAUNOS</text>
    <text x="338" y="941">SELENE-S LSM — 10 m OPEN TRACK SECTION</text>
    <text x="768" y="941" fill="#0284c7">KER-SEL-TRK-001</text>
    <text x="913" y="941" fill="#0284c7">E</text>
    <text x="963" y="941">NTS</text>
    <text x="1038" y="941">m</text>
    <text x="1093" y="941">2026-06-11</text>
    <text x="1193" y="941" fill="#6d28d9" font-size="8.5">EARLY MOCK-UP — NOT FOR CONSTRUCTION</text>
  </g>
</g>
</svg>